<svg xmlns="http://www.w3.org/2000/svg" viewBox="0 0 800 800">
  <rect width="800" height="800" fill="#f3f4f6"/>
  <defs>
    <linearGradient id="napkinGrad" x1="0%" y1="0%" x2="100%" y2="100%">
      <stop offset="0%" style="stop-color:#ffffff;stop-opacity:1" />
      <stop offset="100%" style="stop-color:#f9fafb;stop-opacity:1" />
    </linearGradient>
  </defs>
  <g transform="translate(170, 120)">
    <rect x="0" y="250" width="460" height="20" rx="2" fill="#d1d5db" opacity="0.15"/>
    <g transform="translate(10, 20)">
      <path d="M0 0 L200 0 L200 220 L0 220 Z" fill="url(#napkinGrad)" stroke="#e5e7eb" stroke-width="1.5"/>
      <path d="M10 10 L190 10 L190 210 L10 210 Z" fill="#ffffff" stroke="#f3f4f6" stroke-width="1"/>
      <line x1="100" y1="80" x2="100" y2="160" stroke="#f3f4f6" stroke-width="1"/>
      <line x1="60" y1="120" x2="140" y2="120" stroke="#f3f4f6" stroke-width="1"/>
    </g>
    <g transform="translate(30, 0)">
      <path d="M0 0 L200 0 L200 220 L0 220 Z" fill="url(#napkinGrad)" stroke="#e5e7eb" stroke-width="1.5"/>
      <path d="M10 10 L190 10 L190 210 L10 210 Z" fill="#ffffff" stroke="#f3f4f6" stroke-width="1"/>
      <line x1="100" y1="80" x2="100" y2="160" stroke="#f3f4f6" stroke-width="1"/>
      <line x1="60" y1="120" x2="140" y2="120" stroke="#f3f4f6" stroke-width="1"/>
    </g>
    <g transform="translate(60, -20)">
      <path d="M0 0 L200 0 L200 220 L0 220 Z" fill="url(#napkinGrad)" stroke="#e5e7eb" stroke-width="1.5"/>
      <path d="M10 10 L190 10 L190 210 L10 210 Z" fill="#ffffff" stroke="#f3f4f6" stroke-width="1"/>
      <line x1="100" y1="80" x2="100" y2="160" stroke="#f3f4f6" stroke-width="1"/>
      <line x1="60" y1="120" x2="140" y2="120" stroke="#f3f4f6" stroke-width="1"/>
    </g>
    <g transform="translate(90, -40)">
      <path d="M0 0 L200 0 L200 220 L0 220 Z" fill="url(#napkinGrad)" stroke="#e5e7eb" stroke-width="1.5"/>
      <path d="M10 10 L190 10 L190 210 L10 210 Z" fill="#ffffff" stroke="#f3f4f6" stroke-width="1"/>
      <line x1="100" y1="80" x2="100" y2="160" stroke="#f3f4f6" stroke-width="1"/>
      <line x1="60" y1="120" x2="140" y2="120" stroke="#f3f4f6" stroke-width="1"/>
    </g>
  </g>
  <text x="400" y="700" text-anchor="middle" font-family="Arial, sans-serif" font-size="36" fill="#374151" font-weight="bold" direction="rtl">مناديل ورقية مطوية</text>
</svg>
