<svg xmlns="http://www.w3.org/2000/svg" viewBox="0 0 800 800">
  <rect width="800" height="800" fill="#f3f4f6"/>
  <defs>
    <linearGradient id="cup12Grad" x1="0%" y1="0%" x2="100%" y2="100%">
      <stop offset="0%" style="stop-color:#ffffff;stop-opacity:1" />
      <stop offset="100%" style="stop-color:#e5e7eb;stop-opacity:1" />
    </linearGradient>
    <linearGradient id="coffee12Grad" x1="0%" y1="0%" x2="0%" y2="100%">
      <stop offset="0%" style="stop-color:#92400e;stop-opacity:1" />
      <stop offset="100%" style="stop-color:#78350f;stop-opacity:1" />
    </linearGradient>
  </defs>
  <g transform="translate(200, 120)">
    <ellipse cx="200" cy="380" rx="160" ry="20" fill="#d1d5db" opacity="0.3"/>
    <path d="M80 80 L100 360 Q200 400 300 360 L320 80 Z" fill="url(#cup12Grad)" stroke="#d1d5db" stroke-width="2"/>
    <path d="M80 80 L100 360 Q200 400 300 360 L320 80 Z" fill="none" stroke="#d1d5db" stroke-width="2"/>
    <ellipse cx="200" cy="80" rx="120" ry="25" fill="#f9fafb" stroke="#d1d5db" stroke-width="2"/>
    <ellipse cx="200" cy="80" rx="105" ry="20" fill="url(#coffee12Grad)"/>
    <path d="M320 120 Q380 120 380 200 Q380 280 320 280" fill="none" stroke="#d1d5db" stroke-width="8" stroke-linecap="round"/>
    <path d="M140 40 L140 80" stroke="#d1d5db" stroke-width="3" stroke-linecap="round" opacity="0.5"/>
    <path d="M160 35 L160 75" stroke="#d1d5db" stroke-width="3" stroke-linecap="round" opacity="0.5"/>
    <text x="200" y="450" text-anchor="middle" font-family="Arial, sans-serif" font-size="22" fill="#6b7280" font-weight="500">12 oz</text>
  </g>
  <text x="400" y="700" text-anchor="middle" font-family="Arial, sans-serif" font-size="36" fill="#374151" font-weight="bold" direction="rtl">أكواب ورقية 12 أونصة</text>
</svg>
